<?xml version="1.0" encoding="UTF-8"?>
<svg id="_レイヤー_2" data-name="レイヤー 2" xmlns="http://www.w3.org/2000/svg" viewBox="0 0 79.43 364.27">
  <defs>
    <style>
      .cls-1 {
        fill: rgba(35, 24, 21, .1);
        stroke: #231815;
        stroke-miterlimit: 10;
        stroke-width: .5px;
      }
    </style>
  </defs>
  <g id="_レイヤー_1-2" data-name="レイヤー 1">
    <g>
      <path class="cls-1" d="m32.69,42.75c1.74,4.47,4.47,8.02,8.2,10.65,3.73,2.63,8.5,3.94,14.33,3.94s10.81-1.31,14.33-3.94c3.52-2.63,6-6.18,7.46-10.65,1.45-4.47,2.18-9.52,2.18-15.13V.25H.25v15.77h29.83v10.92L.25,43.07v17.68l32.28-18.43c.05.14.1.28.15.42Zm9.85-26.74h24.07v10.23c0,5.11-.84,9-2.5,11.66-1.67,2.66-4.63,3.99-8.89,3.99s-7.35-1.33-9.48-3.99c-2.13-2.66-3.2-6.55-3.2-11.66v-10.23Z"/>
      <polygon class="cls-1" points="13.46 88.66 34.55 88.66 34.55 116.25 47.76 116.25 47.76 88.66 65.98 88.66 65.98 121.26 79.18 121.26 79.18 72.9 .25 72.9 .25 122.43 13.46 122.43 13.46 88.66"/>
      <path class="cls-1" d="m11.45,194.64l9.46-8.12c-2.19-1.99-3.99-4.27-5.4-6.83-1.41-2.57-2.11-5.5-2.11-8.79,0-3.97,1.06-7.45,3.19-10.43,2.12-2.98,5.15-5.28,9.1-6.89,3.94-1.61,8.68-2.42,14.23-2.42s10.18.86,14.08,2.57c3.91,1.71,6.9,4.09,8.99,7.14,2.09,3.05,3.13,6.49,3.13,10.33,0,2.88-.58,5.46-1.75,7.76-1.17,2.29-2.71,4.4-4.62,6.32l9.66,7.91c2.6-2.4,4.88-5.5,6.83-9.3s2.93-8.14,2.93-13-.89-9.34-2.67-13.62c-1.78-4.28-4.39-8.05-7.81-11.31-3.43-3.26-7.59-5.81-12.49-7.66-4.9-1.85-10.5-2.77-16.8-2.77s-11.89.91-16.75,2.72c-4.87,1.81-8.98,4.32-12.33,7.5-3.36,3.19-5.88,6.87-7.55,11.05-1.68,4.18-2.52,8.67-2.52,13.46s.94,9.52,2.83,13.57c1.88,4.04,4.68,7.64,8.38,10.79Z"/>
      <rect class="cls-1" x=".25" y="208.29" width="78.93" height="15.77"/>
      <path class="cls-1" d="m.25,259.2h28.02v10.55c0,5.68.92,10.81,2.77,15.39,1.85,4.58,4.7,8.24,8.58,10.97,3.87,2.73,8.79,4.1,14.75,4.1s11.17-1.37,14.75-4.1c3.58-2.74,6.16-6.43,7.72-11.08,1.56-4.65,2.34-9.89,2.34-15.71v-25.89H.25v15.77Zm40.48,0h25.89v8.95c0,5.47-.91,9.6-2.72,12.41-1.81,2.8-4.99,4.21-9.53,4.21s-7.95-1.33-10.23-4c-2.27-2.66-3.41-6.69-3.41-12.09v-9.48Z"/>
      <polygon class="cls-1" points=".25 364.02 13.46 364.02 13.46 330.26 34.55 330.26 34.55 357.85 47.76 357.85 47.76 330.26 65.98 330.26 65.98 362.85 79.18 362.85 79.18 314.49 .25 314.49 .25 364.02"/>
    </g>
  </g>
</svg>